<svg width="626" height="791" viewBox="0 0 626 791" fill="none" xmlns="http://www.w3.org/2000/svg">
<path d="M455.302 392.981C408.963 392.965 363.724 407.084 325.63 433.451C287.537 459.818 258.405 497.176 242.129 540.532L295.443 560.518C309.526 523.145 336.28 491.89 371.047 472.198C405.814 452.506 446.391 445.624 485.713 452.75C525.035 459.875 560.61 480.558 586.244 511.195C611.878 541.833 625.947 580.485 626 620.42C626 665.661 608.016 709.049 576.004 741.038C543.992 773.028 500.574 791 455.302 791H170.806C130.499 791.025 91.4835 776.796 60.668 750.833C29.8525 724.87 9.22484 688.847 2.43775 649.144C-4.34935 609.44 3.14194 568.617 23.5851 533.904C44.0283 499.19 76.1045 472.826 114.134 459.478C111.697 410.369 123.837 105.729 158.607 70.9831C172.805 39.3105 210.729 0 282.384 0C354.04 0 404.617 43.5224 421.903 70.9839C459.484 108.538 492.889 351.03 505.516 398.553C489.037 394.839 472.195 392.97 455.302 392.981Z" fill="white"/>
</svg>
