<svg width="626" height="1090" viewBox="0 0 626 1090" fill="none" xmlns="http://www.w3.org/2000/svg">
<path d="M455.302 691.981C408.963 691.965 363.724 706.084 325.63 732.451C287.537 758.818 258.405 796.176 242.129 839.532L295.443 859.518C309.526 822.145 336.28 790.89 371.047 771.198C405.814 751.506 446.391 744.624 485.713 751.75C525.035 758.875 560.61 779.558 586.244 810.195C611.878 840.833 625.947 879.485 626 919.42C626 964.661 608.016 1008.05 576.004 1040.04C543.992 1072.03 500.574 1090 455.302 1090H170.806C130.499 1090.03 91.4835 1075.8 60.668 1049.83C29.8525 1023.87 9.22484 987.847 2.43775 948.144C-4.34935 908.44 3.14194 867.617 23.5851 832.904C44.0283 798.19 76.1045 771.826 114.134 758.478C111.697 709.369 123.837 404.729 158.607 369.983C172.805 338.311 210.729 299 282.384 299C354.04 299 404.617 342.522 421.903 369.984C459.484 407.538 492.889 650.03 505.516 697.553C489.037 693.839 472.195 691.97 455.302 691.981Z" fill="#454545"/>
<path d="M273 115V18C273 13.2261 274.897 8.64773 278.272 5.27208C281.648 1.89642 286.226 0 291 0C295.774 0 300.353 1.89642 303.728 5.27208C307.104 8.64773 309 13.2261 309 18V115C309 119.774 307.104 124.352 303.728 127.728C300.353 131.104 295.774 133 291 133C286.226 133 281.648 131.104 278.272 127.728C274.897 124.352 273 119.774 273 115ZM291 169C262.52 169 234.679 177.445 210.998 193.268C187.317 209.091 168.861 231.581 157.962 257.894C147.063 284.206 144.211 313.16 149.767 341.093C155.323 369.026 169.038 394.685 189.177 414.823C209.316 434.962 234.974 448.677 262.907 454.233C290.841 459.789 319.794 456.938 346.107 446.039C372.419 435.14 394.909 416.683 410.732 393.002C426.555 369.321 435 341.48 435 313C434.959 274.822 419.774 238.219 392.778 211.223C365.781 184.226 329.179 169.042 291 169ZM134.265 181.735C137.643 185.113 142.224 187.01 147 187.01C151.777 187.01 156.358 185.112 159.735 181.735C163.113 178.357 165.01 173.777 165.01 169C165.01 164.223 163.113 159.643 159.735 156.265L123.735 120.265C120.358 116.887 115.777 114.99 111 114.99C106.224 114.99 101.643 116.887 98.2652 120.265C94.8877 123.643 92.9902 128.223 92.9902 133C92.9902 137.777 94.8877 142.357 98.2652 145.735L134.265 181.735ZM435 187C437.365 187.002 439.706 186.538 441.892 185.634C444.077 184.731 446.062 183.406 447.735 181.735L483.735 145.735C487.113 142.357 489.01 137.777 489.01 133C489.01 128.223 487.113 123.643 483.735 120.265C480.358 116.887 475.777 114.99 471 114.99C466.224 114.99 461.643 116.887 458.265 120.265L422.265 156.265C419.745 158.782 418.028 161.991 417.333 165.484C416.637 168.978 416.993 172.599 418.357 175.89C419.721 179.181 422.03 181.993 424.993 183.971C427.955 185.949 431.438 187.003 435 187Z" fill="#454545"/>
</svg>
