<svg width="927" height="927" viewBox="0 0 927 927" fill="none" xmlns="http://www.w3.org/2000/svg">
<path d="M656.625 270.375C593.712 270.353 532.292 289.536 480.574 325.358C428.857 361.18 389.305 411.935 367.207 470.839L439.591 497.992C458.71 447.216 495.033 404.754 542.235 378C589.436 351.247 644.527 341.896 697.913 351.577C751.298 361.258 799.598 389.357 834.4 430.982C869.202 472.606 888.302 525.118 888.375 579.375C888.375 640.839 863.958 699.785 820.497 743.247C777.035 786.709 718.088 811.125 656.625 811.125H270.375C215.652 811.159 162.682 791.828 120.845 756.554C79.008 721.28 51.0027 672.34 41.7882 618.399C32.5736 564.457 42.7442 508.995 70.4991 461.833C98.2541 414.671 141.803 378.852 193.434 360.719C190.125 293.999 211.634 228.416 253.813 176.613C295.992 124.811 355.855 90.4577 421.861 80.1756C487.867 69.8934 555.343 84.4108 611.28 120.929C667.217 157.447 707.655 213.38 724.798 277.945C702.425 272.9 679.559 270.361 656.625 270.375Z" fill="#454545"/>
</svg>
